<mxfile host="app.diagrams.net" agent="Mozilla/5.0 (X11; Linux x86_64) AppleWebKit/537.36 (KHTML, like Gecko) Chrome/137.0.0.0 Safari/537.36" version="27.1.6" pages="4">
  <diagram id="8CSW4FF90N1-vGutsru7" name="architecture">
    <mxGraphModel dx="2864" dy="2256" grid="1" gridSize="10" guides="1" tooltips="1" connect="1" arrows="1" fold="1" page="1" pageScale="1" pageWidth="827" pageHeight="1169" math="0" shadow="0">
      <root>
        <mxCell id="0" />
        <mxCell id="1" parent="0" />
        <mxCell id="BBOB6hUD_L7DVc7jGb6--17" value="Engine SDK" style="swimlane;whiteSpace=wrap;html=1;" parent="1" vertex="1">
          <mxGeometry x="-782" y="-180" width="738" height="770" as="geometry" />
        </mxCell>
        <mxCell id="BBOB6hUD_L7DVc7jGb6--18" value="Application" style="swimlane;fontStyle=1;align=center;verticalAlign=top;childLayout=stackLayout;horizontal=1;startSize=26;horizontalStack=0;resizeParent=1;resizeParentMax=0;resizeLast=0;collapsible=1;marginBottom=0;whiteSpace=wrap;html=1;" parent="BBOB6hUD_L7DVc7jGb6--17" vertex="1">
          <mxGeometry x="508" y="100" width="190" height="138" as="geometry">
            <mxRectangle x="548" y="100" width="100" height="30" as="alternateBounds" />
          </mxGeometry>
        </mxCell>
        <mxCell id="BBOB6hUD_L7DVc7jGb6--20" value="" style="line;strokeWidth=1;fillColor=none;align=left;verticalAlign=middle;spacingTop=-1;spacingLeft=3;spacingRight=3;rotatable=0;labelPosition=right;points=[];portConstraint=eastwest;strokeColor=inherit;" parent="BBOB6hUD_L7DVc7jGb6--18" vertex="1">
          <mxGeometry y="26" width="190" height="8" as="geometry" />
        </mxCell>
        <mxCell id="BBOB6hUD_L7DVc7jGb6--21" value="+ onStart(): void" style="text;strokeColor=none;fillColor=none;align=left;verticalAlign=top;spacingLeft=4;spacingRight=4;overflow=hidden;rotatable=0;points=[[0,0.5],[1,0.5]];portConstraint=eastwest;whiteSpace=wrap;html=1;" parent="BBOB6hUD_L7DVc7jGb6--18" vertex="1">
          <mxGeometry y="34" width="190" height="26" as="geometry" />
        </mxCell>
        <mxCell id="BBOB6hUD_L7DVc7jGb6--22" value="+ onRender(): void" style="text;strokeColor=none;fillColor=none;align=left;verticalAlign=top;spacingLeft=4;spacingRight=4;overflow=hidden;rotatable=0;points=[[0,0.5],[1,0.5]];portConstraint=eastwest;whiteSpace=wrap;html=1;" parent="BBOB6hUD_L7DVc7jGb6--18" vertex="1">
          <mxGeometry y="60" width="190" height="26" as="geometry" />
        </mxCell>
        <mxCell id="BBOB6hUD_L7DVc7jGb6--24" value="+ onClose(): void" style="text;strokeColor=none;fillColor=none;align=left;verticalAlign=top;spacingLeft=4;spacingRight=4;overflow=hidden;rotatable=0;points=[[0,0.5],[1,0.5]];portConstraint=eastwest;whiteSpace=wrap;html=1;" parent="BBOB6hUD_L7DVc7jGb6--18" vertex="1">
          <mxGeometry y="86" width="190" height="26" as="geometry" />
        </mxCell>
        <mxCell id="BBOB6hUD_L7DVc7jGb6--79" value="+ getConfig(): ApplicationConfig" style="text;strokeColor=none;fillColor=none;align=left;verticalAlign=top;spacingLeft=4;spacingRight=4;overflow=hidden;rotatable=0;points=[[0,0.5],[1,0.5]];portConstraint=eastwest;whiteSpace=wrap;html=1;" parent="BBOB6hUD_L7DVc7jGb6--18" vertex="1">
          <mxGeometry y="112" width="190" height="26" as="geometry" />
        </mxCell>
        <mxCell id="BBOB6hUD_L7DVc7jGb6--69" value="ApplicationConfig" style="swimlane;fontStyle=0;childLayout=stackLayout;horizontal=1;startSize=26;fillColor=none;horizontalStack=0;resizeParent=1;resizeParentMax=0;resizeLast=0;collapsible=1;marginBottom=0;whiteSpace=wrap;html=1;" parent="BBOB6hUD_L7DVc7jGb6--17" vertex="1" collapsed="1">
          <mxGeometry x="508" y="300" width="130" height="30" as="geometry">
            <mxRectangle x="508" y="300" width="142" height="52" as="alternateBounds" />
          </mxGeometry>
        </mxCell>
        <mxCell id="BBOB6hUD_L7DVc7jGb6--70" value="*** fields ***" style="text;strokeColor=none;fillColor=none;align=left;verticalAlign=top;spacingLeft=4;spacingRight=4;overflow=hidden;rotatable=0;points=[[0,0.5],[1,0.5]];portConstraint=eastwest;whiteSpace=wrap;html=1;" parent="BBOB6hUD_L7DVc7jGb6--69" vertex="1">
          <mxGeometry y="26" width="142" height="26" as="geometry" />
        </mxCell>
        <mxCell id="BBOB6hUD_L7DVc7jGb6--86" value="Module" style="swimlane;fontStyle=1;align=center;verticalAlign=top;childLayout=stackLayout;horizontal=1;startSize=26;horizontalStack=0;resizeParent=1;resizeParentMax=0;resizeLast=0;collapsible=1;marginBottom=0;whiteSpace=wrap;html=1;" parent="BBOB6hUD_L7DVc7jGb6--17" vertex="1">
          <mxGeometry x="492" y="390" width="190" height="112" as="geometry">
            <mxRectangle x="548" y="100" width="100" height="30" as="alternateBounds" />
          </mxGeometry>
        </mxCell>
        <mxCell id="BBOB6hUD_L7DVc7jGb6--87" value="" style="line;strokeWidth=1;fillColor=none;align=left;verticalAlign=middle;spacingTop=-1;spacingLeft=3;spacingRight=3;rotatable=0;labelPosition=right;points=[];portConstraint=eastwest;strokeColor=inherit;" parent="BBOB6hUD_L7DVc7jGb6--86" vertex="1">
          <mxGeometry y="26" width="190" height="8" as="geometry" />
        </mxCell>
        <mxCell id="BBOB6hUD_L7DVc7jGb6--88" value="+ start(): void" style="text;strokeColor=none;fillColor=none;align=left;verticalAlign=top;spacingLeft=4;spacingRight=4;overflow=hidden;rotatable=0;points=[[0,0.5],[1,0.5]];portConstraint=eastwest;whiteSpace=wrap;html=1;" parent="BBOB6hUD_L7DVc7jGb6--86" vertex="1">
          <mxGeometry y="34" width="190" height="26" as="geometry" />
        </mxCell>
        <mxCell id="BBOB6hUD_L7DVc7jGb6--89" value="+ update(): void" style="text;strokeColor=none;fillColor=none;align=left;verticalAlign=top;spacingLeft=4;spacingRight=4;overflow=hidden;rotatable=0;points=[[0,0.5],[1,0.5]];portConstraint=eastwest;whiteSpace=wrap;html=1;" parent="BBOB6hUD_L7DVc7jGb6--86" vertex="1">
          <mxGeometry y="60" width="190" height="26" as="geometry" />
        </mxCell>
        <mxCell id="BBOB6hUD_L7DVc7jGb6--90" value="+ close(): void" style="text;strokeColor=none;fillColor=none;align=left;verticalAlign=top;spacingLeft=4;spacingRight=4;overflow=hidden;rotatable=0;points=[[0,0.5],[1,0.5]];portConstraint=eastwest;whiteSpace=wrap;html=1;" parent="BBOB6hUD_L7DVc7jGb6--86" vertex="1">
          <mxGeometry y="86" width="190" height="26" as="geometry" />
        </mxCell>
        <mxCell id="BBOB6hUD_L7DVc7jGb6--118" value="Engine" style="swimlane;fontStyle=1;align=center;verticalAlign=top;childLayout=stackLayout;horizontal=1;startSize=26;horizontalStack=0;resizeParent=1;resizeParentMax=0;resizeLast=0;collapsible=1;marginBottom=0;whiteSpace=wrap;html=1;" parent="BBOB6hUD_L7DVc7jGb6--17" vertex="1">
          <mxGeometry x="322" y="40" width="170" height="86" as="geometry">
            <mxRectangle x="60" y="50" width="100" height="30" as="alternateBounds" />
          </mxGeometry>
        </mxCell>
        <mxCell id="BBOB6hUD_L7DVc7jGb6--119" value="+ config: ApplicationConfig" style="text;strokeColor=none;fillColor=none;align=left;verticalAlign=top;spacingLeft=4;spacingRight=4;overflow=hidden;rotatable=0;points=[[0,0.5],[1,0.5]];portConstraint=eastwest;whiteSpace=wrap;html=1;" parent="BBOB6hUD_L7DVc7jGb6--118" vertex="1">
          <mxGeometry y="26" width="170" height="26" as="geometry" />
        </mxCell>
        <mxCell id="BBOB6hUD_L7DVc7jGb6--120" value="" style="line;strokeWidth=1;fillColor=none;align=left;verticalAlign=middle;spacingTop=-1;spacingLeft=3;spacingRight=3;rotatable=0;labelPosition=right;points=[];portConstraint=eastwest;strokeColor=inherit;" parent="BBOB6hUD_L7DVc7jGb6--118" vertex="1">
          <mxGeometry y="52" width="170" height="8" as="geometry" />
        </mxCell>
        <mxCell id="BBOB6hUD_L7DVc7jGb6--121" value="+ lauch(): void" style="text;strokeColor=none;fillColor=none;align=left;verticalAlign=top;spacingLeft=4;spacingRight=4;overflow=hidden;rotatable=0;points=[[0,0.5],[1,0.5]];portConstraint=eastwest;whiteSpace=wrap;html=1;" parent="BBOB6hUD_L7DVc7jGb6--118" vertex="1">
          <mxGeometry y="60" width="170" height="26" as="geometry" />
        </mxCell>
        <mxCell id="ikwSKeuNnDZOpYQvAKLv-1" value="Shader" style="swimlane;fontStyle=1;align=center;verticalAlign=top;childLayout=stackLayout;horizontal=1;startSize=26;horizontalStack=0;resizeParent=1;resizeParentMax=0;resizeLast=0;collapsible=1;marginBottom=0;whiteSpace=wrap;html=1;" vertex="1" parent="BBOB6hUD_L7DVc7jGb6--17">
          <mxGeometry x="232" y="272" width="170" height="86" as="geometry">
            <mxRectangle x="60" y="50" width="100" height="30" as="alternateBounds" />
          </mxGeometry>
        </mxCell>
        <mxCell id="ikwSKeuNnDZOpYQvAKLv-2" value="+ config: ShaderConfig" style="text;strokeColor=none;fillColor=none;align=left;verticalAlign=top;spacingLeft=4;spacingRight=4;overflow=hidden;rotatable=0;points=[[0,0.5],[1,0.5]];portConstraint=eastwest;whiteSpace=wrap;html=1;" vertex="1" parent="ikwSKeuNnDZOpYQvAKLv-1">
          <mxGeometry y="26" width="170" height="26" as="geometry" />
        </mxCell>
        <mxCell id="ikwSKeuNnDZOpYQvAKLv-3" value="" style="line;strokeWidth=1;fillColor=none;align=left;verticalAlign=middle;spacingTop=-1;spacingLeft=3;spacingRight=3;rotatable=0;labelPosition=right;points=[];portConstraint=eastwest;strokeColor=inherit;" vertex="1" parent="ikwSKeuNnDZOpYQvAKLv-1">
          <mxGeometry y="52" width="170" height="8" as="geometry" />
        </mxCell>
        <mxCell id="ikwSKeuNnDZOpYQvAKLv-4" value="+ lauch(): void" style="text;strokeColor=none;fillColor=none;align=left;verticalAlign=top;spacingLeft=4;spacingRight=4;overflow=hidden;rotatable=0;points=[[0,0.5],[1,0.5]];portConstraint=eastwest;whiteSpace=wrap;html=1;" vertex="1" parent="ikwSKeuNnDZOpYQvAKLv-1">
          <mxGeometry y="60" width="170" height="26" as="geometry" />
        </mxCell>
        <mxCell id="BBOB6hUD_L7DVc7jGb6--44" value="User" style="swimlane;whiteSpace=wrap;html=1;" parent="1" vertex="1">
          <mxGeometry y="-180" width="390" height="380" as="geometry" />
        </mxCell>
        <mxCell id="BBOB6hUD_L7DVc7jGb6--25" value="UserApplication" style="swimlane;fontStyle=1;align=center;verticalAlign=top;childLayout=stackLayout;horizontal=1;startSize=26;horizontalStack=0;resizeParent=1;resizeParentMax=0;resizeLast=0;collapsible=1;marginBottom=0;whiteSpace=wrap;html=1;" parent="BBOB6hUD_L7DVc7jGb6--44" vertex="1" collapsed="1">
          <mxGeometry x="60" y="110" width="130" height="30" as="geometry">
            <mxRectangle x="60" y="110" width="180" height="164" as="alternateBounds" />
          </mxGeometry>
        </mxCell>
        <mxCell id="BBOB6hUD_L7DVc7jGb6--26" value="+ config: ApplicationConfig" style="text;strokeColor=none;fillColor=none;align=left;verticalAlign=top;spacingLeft=4;spacingRight=4;overflow=hidden;rotatable=0;points=[[0,0.5],[1,0.5]];portConstraint=eastwest;whiteSpace=wrap;html=1;" parent="BBOB6hUD_L7DVc7jGb6--25" vertex="1">
          <mxGeometry y="26" width="180" height="26" as="geometry" />
        </mxCell>
        <mxCell id="BBOB6hUD_L7DVc7jGb6--27" value="" style="line;strokeWidth=1;fillColor=none;align=left;verticalAlign=middle;spacingTop=-1;spacingLeft=3;spacingRight=3;rotatable=0;labelPosition=right;points=[];portConstraint=eastwest;strokeColor=inherit;" parent="BBOB6hUD_L7DVc7jGb6--25" vertex="1">
          <mxGeometry y="52" width="180" height="8" as="geometry" />
        </mxCell>
        <mxCell id="BBOB6hUD_L7DVc7jGb6--28" value="+ onStart(): void" style="text;strokeColor=none;fillColor=none;align=left;verticalAlign=top;spacingLeft=4;spacingRight=4;overflow=hidden;rotatable=0;points=[[0,0.5],[1,0.5]];portConstraint=eastwest;whiteSpace=wrap;html=1;" parent="BBOB6hUD_L7DVc7jGb6--25" vertex="1">
          <mxGeometry y="60" width="180" height="26" as="geometry" />
        </mxCell>
        <mxCell id="BBOB6hUD_L7DVc7jGb6--29" value="+ onRender(): void" style="text;strokeColor=none;fillColor=none;align=left;verticalAlign=top;spacingLeft=4;spacingRight=4;overflow=hidden;rotatable=0;points=[[0,0.5],[1,0.5]];portConstraint=eastwest;whiteSpace=wrap;html=1;" parent="BBOB6hUD_L7DVc7jGb6--25" vertex="1">
          <mxGeometry y="86" width="180" height="26" as="geometry" />
        </mxCell>
        <mxCell id="BBOB6hUD_L7DVc7jGb6--30" value="+ onClose(): void" style="text;strokeColor=none;fillColor=none;align=left;verticalAlign=top;spacingLeft=4;spacingRight=4;overflow=hidden;rotatable=0;points=[[0,0.5],[1,0.5]];portConstraint=eastwest;whiteSpace=wrap;html=1;" parent="BBOB6hUD_L7DVc7jGb6--25" vertex="1">
          <mxGeometry y="112" width="180" height="26" as="geometry" />
        </mxCell>
        <mxCell id="BBOB6hUD_L7DVc7jGb6--77" value="+ getConfig(): ApplicationConfig" style="text;strokeColor=none;fillColor=none;align=left;verticalAlign=top;spacingLeft=4;spacingRight=4;overflow=hidden;rotatable=0;points=[[0,0.5],[1,0.5]];portConstraint=eastwest;whiteSpace=wrap;html=1;" parent="BBOB6hUD_L7DVc7jGb6--25" vertex="1">
          <mxGeometry y="138" width="180" height="26" as="geometry" />
        </mxCell>
        <mxCell id="BBOB6hUD_L7DVc7jGb6--74" value="Engine Backend" style="swimlane;whiteSpace=wrap;html=1;" parent="1" vertex="1">
          <mxGeometry x="-782" y="-730" width="742" height="490" as="geometry" />
        </mxCell>
        <mxCell id="BBOB6hUD_L7DVc7jGb6--96" value="Pipeline" style="swimlane;fontStyle=1;align=center;verticalAlign=top;childLayout=stackLayout;horizontal=1;startSize=26;horizontalStack=0;resizeParent=1;resizeParentMax=0;resizeLast=0;collapsible=1;marginBottom=0;whiteSpace=wrap;html=1;" parent="BBOB6hUD_L7DVc7jGb6--74" vertex="1">
          <mxGeometry x="187" y="34" width="160" height="86" as="geometry" />
        </mxCell>
        <mxCell id="BBOB6hUD_L7DVc7jGb6--97" value="+ field: type" style="text;strokeColor=none;fillColor=none;align=left;verticalAlign=top;spacingLeft=4;spacingRight=4;overflow=hidden;rotatable=0;points=[[0,0.5],[1,0.5]];portConstraint=eastwest;whiteSpace=wrap;html=1;" parent="BBOB6hUD_L7DVc7jGb6--96" vertex="1">
          <mxGeometry y="26" width="160" height="26" as="geometry" />
        </mxCell>
        <mxCell id="BBOB6hUD_L7DVc7jGb6--98" value="" style="line;strokeWidth=1;fillColor=none;align=left;verticalAlign=middle;spacingTop=-1;spacingLeft=3;spacingRight=3;rotatable=0;labelPosition=right;points=[];portConstraint=eastwest;strokeColor=inherit;" parent="BBOB6hUD_L7DVc7jGb6--96" vertex="1">
          <mxGeometry y="52" width="160" height="8" as="geometry" />
        </mxCell>
        <mxCell id="BBOB6hUD_L7DVc7jGb6--99" value="+ method(type): type" style="text;strokeColor=none;fillColor=none;align=left;verticalAlign=top;spacingLeft=4;spacingRight=4;overflow=hidden;rotatable=0;points=[[0,0.5],[1,0.5]];portConstraint=eastwest;whiteSpace=wrap;html=1;" parent="BBOB6hUD_L7DVc7jGb6--96" vertex="1">
          <mxGeometry y="60" width="160" height="26" as="geometry" />
        </mxCell>
        <mxCell id="BBOB6hUD_L7DVc7jGb6--100" value="Device" style="swimlane;fontStyle=1;align=center;verticalAlign=top;childLayout=stackLayout;horizontal=1;startSize=26;horizontalStack=0;resizeParent=1;resizeParentMax=0;resizeLast=0;collapsible=1;marginBottom=0;whiteSpace=wrap;html=1;" parent="BBOB6hUD_L7DVc7jGb6--74" vertex="1">
          <mxGeometry x="10" y="34" width="160" height="86" as="geometry" />
        </mxCell>
        <mxCell id="BBOB6hUD_L7DVc7jGb6--101" value="+ field: type" style="text;strokeColor=none;fillColor=none;align=left;verticalAlign=top;spacingLeft=4;spacingRight=4;overflow=hidden;rotatable=0;points=[[0,0.5],[1,0.5]];portConstraint=eastwest;whiteSpace=wrap;html=1;" parent="BBOB6hUD_L7DVc7jGb6--100" vertex="1">
          <mxGeometry y="26" width="160" height="26" as="geometry" />
        </mxCell>
        <mxCell id="BBOB6hUD_L7DVc7jGb6--102" value="" style="line;strokeWidth=1;fillColor=none;align=left;verticalAlign=middle;spacingTop=-1;spacingLeft=3;spacingRight=3;rotatable=0;labelPosition=right;points=[];portConstraint=eastwest;strokeColor=inherit;" parent="BBOB6hUD_L7DVc7jGb6--100" vertex="1">
          <mxGeometry y="52" width="160" height="8" as="geometry" />
        </mxCell>
        <mxCell id="BBOB6hUD_L7DVc7jGb6--103" value="+ method(type): type" style="text;strokeColor=none;fillColor=none;align=left;verticalAlign=top;spacingLeft=4;spacingRight=4;overflow=hidden;rotatable=0;points=[[0,0.5],[1,0.5]];portConstraint=eastwest;whiteSpace=wrap;html=1;" parent="BBOB6hUD_L7DVc7jGb6--100" vertex="1">
          <mxGeometry y="60" width="160" height="26" as="geometry" />
        </mxCell>
        <mxCell id="BBOB6hUD_L7DVc7jGb6--104" value="Swapchain" style="swimlane;fontStyle=1;align=center;verticalAlign=top;childLayout=stackLayout;horizontal=1;startSize=26;horizontalStack=0;resizeParent=1;resizeParentMax=0;resizeLast=0;collapsible=1;marginBottom=0;whiteSpace=wrap;html=1;" parent="BBOB6hUD_L7DVc7jGb6--74" vertex="1">
          <mxGeometry x="360" y="34" width="160" height="86" as="geometry" />
        </mxCell>
        <mxCell id="BBOB6hUD_L7DVc7jGb6--105" value="+ field: type" style="text;strokeColor=none;fillColor=none;align=left;verticalAlign=top;spacingLeft=4;spacingRight=4;overflow=hidden;rotatable=0;points=[[0,0.5],[1,0.5]];portConstraint=eastwest;whiteSpace=wrap;html=1;" parent="BBOB6hUD_L7DVc7jGb6--104" vertex="1">
          <mxGeometry y="26" width="160" height="26" as="geometry" />
        </mxCell>
        <mxCell id="BBOB6hUD_L7DVc7jGb6--106" value="" style="line;strokeWidth=1;fillColor=none;align=left;verticalAlign=middle;spacingTop=-1;spacingLeft=3;spacingRight=3;rotatable=0;labelPosition=right;points=[];portConstraint=eastwest;strokeColor=inherit;" parent="BBOB6hUD_L7DVc7jGb6--104" vertex="1">
          <mxGeometry y="52" width="160" height="8" as="geometry" />
        </mxCell>
        <mxCell id="BBOB6hUD_L7DVc7jGb6--107" value="+ method(type): type" style="text;strokeColor=none;fillColor=none;align=left;verticalAlign=top;spacingLeft=4;spacingRight=4;overflow=hidden;rotatable=0;points=[[0,0.5],[1,0.5]];portConstraint=eastwest;whiteSpace=wrap;html=1;" parent="BBOB6hUD_L7DVc7jGb6--104" vertex="1">
          <mxGeometry y="60" width="160" height="26" as="geometry" />
        </mxCell>
        <mxCell id="BBOB6hUD_L7DVc7jGb6--110" value="Window" style="swimlane;fontStyle=1;align=center;verticalAlign=top;childLayout=stackLayout;horizontal=1;startSize=26;horizontalStack=0;resizeParent=1;resizeParentMax=0;resizeLast=0;collapsible=1;marginBottom=0;whiteSpace=wrap;html=1;" parent="BBOB6hUD_L7DVc7jGb6--74" vertex="1">
          <mxGeometry x="532" y="34" width="160" height="86" as="geometry" />
        </mxCell>
        <mxCell id="BBOB6hUD_L7DVc7jGb6--111" value="+ field: type" style="text;strokeColor=none;fillColor=none;align=left;verticalAlign=top;spacingLeft=4;spacingRight=4;overflow=hidden;rotatable=0;points=[[0,0.5],[1,0.5]];portConstraint=eastwest;whiteSpace=wrap;html=1;" parent="BBOB6hUD_L7DVc7jGb6--110" vertex="1">
          <mxGeometry y="26" width="160" height="26" as="geometry" />
        </mxCell>
        <mxCell id="BBOB6hUD_L7DVc7jGb6--112" value="" style="line;strokeWidth=1;fillColor=none;align=left;verticalAlign=middle;spacingTop=-1;spacingLeft=3;spacingRight=3;rotatable=0;labelPosition=right;points=[];portConstraint=eastwest;strokeColor=inherit;" parent="BBOB6hUD_L7DVc7jGb6--110" vertex="1">
          <mxGeometry y="52" width="160" height="8" as="geometry" />
        </mxCell>
        <mxCell id="BBOB6hUD_L7DVc7jGb6--113" value="+ method(type): type" style="text;strokeColor=none;fillColor=none;align=left;verticalAlign=top;spacingLeft=4;spacingRight=4;overflow=hidden;rotatable=0;points=[[0,0.5],[1,0.5]];portConstraint=eastwest;whiteSpace=wrap;html=1;" parent="BBOB6hUD_L7DVc7jGb6--110" vertex="1">
          <mxGeometry y="60" width="160" height="26" as="geometry" />
        </mxCell>
        <mxCell id="BBOB6hUD_L7DVc7jGb6--114" value="Renderer" style="swimlane;fontStyle=1;align=center;verticalAlign=top;childLayout=stackLayout;horizontal=1;startSize=26;horizontalStack=0;resizeParent=1;resizeParentMax=0;resizeLast=0;collapsible=1;marginBottom=0;whiteSpace=wrap;html=1;" parent="BBOB6hUD_L7DVc7jGb6--74" vertex="1">
          <mxGeometry x="10" y="130" width="160" height="86" as="geometry" />
        </mxCell>
        <mxCell id="BBOB6hUD_L7DVc7jGb6--115" value="+ field: type" style="text;strokeColor=none;fillColor=none;align=left;verticalAlign=top;spacingLeft=4;spacingRight=4;overflow=hidden;rotatable=0;points=[[0,0.5],[1,0.5]];portConstraint=eastwest;whiteSpace=wrap;html=1;" parent="BBOB6hUD_L7DVc7jGb6--114" vertex="1">
          <mxGeometry y="26" width="160" height="26" as="geometry" />
        </mxCell>
        <mxCell id="BBOB6hUD_L7DVc7jGb6--116" value="" style="line;strokeWidth=1;fillColor=none;align=left;verticalAlign=middle;spacingTop=-1;spacingLeft=3;spacingRight=3;rotatable=0;labelPosition=right;points=[];portConstraint=eastwest;strokeColor=inherit;" parent="BBOB6hUD_L7DVc7jGb6--114" vertex="1">
          <mxGeometry y="52" width="160" height="8" as="geometry" />
        </mxCell>
        <mxCell id="BBOB6hUD_L7DVc7jGb6--117" value="+ method(type): type" style="text;strokeColor=none;fillColor=none;align=left;verticalAlign=top;spacingLeft=4;spacingRight=4;overflow=hidden;rotatable=0;points=[[0,0.5],[1,0.5]];portConstraint=eastwest;whiteSpace=wrap;html=1;" parent="BBOB6hUD_L7DVc7jGb6--114" vertex="1">
          <mxGeometry y="60" width="160" height="26" as="geometry" />
        </mxCell>
        <mxCell id="BBOB6hUD_L7DVc7jGb6--122" value="Engine" style="swimlane;fontStyle=1;align=center;verticalAlign=top;childLayout=stackLayout;horizontal=1;startSize=26;horizontalStack=0;resizeParent=1;resizeParentMax=0;resizeLast=0;collapsible=1;marginBottom=0;whiteSpace=wrap;html=1;" parent="BBOB6hUD_L7DVc7jGb6--74" vertex="1">
          <mxGeometry x="572" y="390" width="160" height="86" as="geometry" />
        </mxCell>
        <mxCell id="BBOB6hUD_L7DVc7jGb6--123" value="+ field: type" style="text;strokeColor=none;fillColor=none;align=left;verticalAlign=top;spacingLeft=4;spacingRight=4;overflow=hidden;rotatable=0;points=[[0,0.5],[1,0.5]];portConstraint=eastwest;whiteSpace=wrap;html=1;" parent="BBOB6hUD_L7DVc7jGb6--122" vertex="1">
          <mxGeometry y="26" width="160" height="26" as="geometry" />
        </mxCell>
        <mxCell id="BBOB6hUD_L7DVc7jGb6--124" value="" style="line;strokeWidth=1;fillColor=none;align=left;verticalAlign=middle;spacingTop=-1;spacingLeft=3;spacingRight=3;rotatable=0;labelPosition=right;points=[];portConstraint=eastwest;strokeColor=inherit;" parent="BBOB6hUD_L7DVc7jGb6--122" vertex="1">
          <mxGeometry y="52" width="160" height="8" as="geometry" />
        </mxCell>
        <mxCell id="BBOB6hUD_L7DVc7jGb6--125" value="+ method(type): type" style="text;strokeColor=none;fillColor=none;align=left;verticalAlign=top;spacingLeft=4;spacingRight=4;overflow=hidden;rotatable=0;points=[[0,0.5],[1,0.5]];portConstraint=eastwest;whiteSpace=wrap;html=1;" parent="BBOB6hUD_L7DVc7jGb6--122" vertex="1">
          <mxGeometry y="60" width="160" height="26" as="geometry" />
        </mxCell>
        <mxCell id="BBOB6hUD_L7DVc7jGb6--75" style="edgeStyle=orthogonalEdgeStyle;rounded=0;orthogonalLoop=1;jettySize=auto;html=1;entryX=1;entryY=0.5;entryDx=0;entryDy=0;" parent="1" source="BBOB6hUD_L7DVc7jGb6--26" target="BBOB6hUD_L7DVc7jGb6--18" edge="1">
          <mxGeometry relative="1" as="geometry">
            <mxPoint x="-88" y="-31" as="targetPoint" />
          </mxGeometry>
        </mxCell>
        <mxCell id="BBOB6hUD_L7DVc7jGb6--85" style="edgeStyle=orthogonalEdgeStyle;rounded=0;orthogonalLoop=1;jettySize=auto;html=1;exitX=1;exitY=0.5;exitDx=0;exitDy=0;entryX=1;entryY=0.5;entryDx=0;entryDy=0;" parent="1" source="BBOB6hUD_L7DVc7jGb6--77" target="BBOB6hUD_L7DVc7jGb6--69" edge="1">
          <mxGeometry relative="1" as="geometry">
            <Array as="points">
              <mxPoint x="210" y="-55" />
              <mxPoint x="210" y="135" />
            </Array>
          </mxGeometry>
        </mxCell>
        <mxCell id="BBOB6hUD_L7DVc7jGb6--127" style="edgeStyle=orthogonalEdgeStyle;rounded=0;orthogonalLoop=1;jettySize=auto;html=1;exitX=0.75;exitY=0;exitDx=0;exitDy=0;entryX=0;entryY=0.25;entryDx=0;entryDy=0;" parent="1" source="BBOB6hUD_L7DVc7jGb6--118" target="BBOB6hUD_L7DVc7jGb6--122" edge="1">
          <mxGeometry relative="1" as="geometry" />
        </mxCell>
      </root>
    </mxGraphModel>
  </diagram>
  <diagram id="V4PkayzIa6XQgWWwzlsZ" name="engine-entry-flow">
    <mxGraphModel dx="2253" dy="761" grid="1" gridSize="10" guides="1" tooltips="1" connect="1" arrows="1" fold="1" page="1" pageScale="1" pageWidth="827" pageHeight="1169" math="0" shadow="0">
      <root>
        <mxCell id="0" />
        <mxCell id="1" parent="0" />
        <mxCell id="iGaDnqJwKuyefuH-cSoQ-2" value="User/SDK" style="swimlane;whiteSpace=wrap;html=1;" parent="1" vertex="1">
          <mxGeometry x="-130" y="110" width="450" height="410" as="geometry" />
        </mxCell>
        <mxCell id="iGaDnqJwKuyefuH-cSoQ-29" style="edgeStyle=orthogonalEdgeStyle;rounded=0;orthogonalLoop=1;jettySize=auto;html=1;exitX=0.25;exitY=1;exitDx=0;exitDy=0;entryX=0.25;entryY=0;entryDx=0;entryDy=0;" parent="iGaDnqJwKuyefuH-cSoQ-2" source="UgUuZzhGdfhLJxjVj2-U-2" target="UgUuZzhGdfhLJxjVj2-U-1" edge="1">
          <mxGeometry relative="1" as="geometry" />
        </mxCell>
        <mxCell id="iGaDnqJwKuyefuH-cSoQ-30" value="1.&lt;br&gt;Application" style="edgeLabel;html=1;align=center;verticalAlign=middle;resizable=0;points=[];" parent="iGaDnqJwKuyefuH-cSoQ-29" vertex="1" connectable="0">
          <mxGeometry x="-0.0648" relative="1" as="geometry">
            <mxPoint as="offset" />
          </mxGeometry>
        </mxCell>
        <mxCell id="iGaDnqJwKuyefuH-cSoQ-39" style="edgeStyle=orthogonalEdgeStyle;rounded=0;orthogonalLoop=1;jettySize=auto;html=1;exitX=1;exitY=0.25;exitDx=0;exitDy=0;entryX=0;entryY=0;entryDx=0;entryDy=0;" parent="iGaDnqJwKuyefuH-cSoQ-2" source="UgUuZzhGdfhLJxjVj2-U-2" target="iGaDnqJwKuyefuH-cSoQ-15" edge="1">
          <mxGeometry relative="1" as="geometry" />
        </mxCell>
        <mxCell id="iGaDnqJwKuyefuH-cSoQ-40" value="5.&lt;br&gt;Engine Call" style="edgeLabel;html=1;align=center;verticalAlign=middle;resizable=0;points=[];" parent="iGaDnqJwKuyefuH-cSoQ-39" vertex="1" connectable="0">
          <mxGeometry x="-0.2494" y="-1" relative="1" as="geometry">
            <mxPoint as="offset" />
          </mxGeometry>
        </mxCell>
        <mxCell id="UgUuZzhGdfhLJxjVj2-U-2" value="Application" style="rounded=0;whiteSpace=wrap;html=1;" parent="iGaDnqJwKuyefuH-cSoQ-2" vertex="1">
          <mxGeometry x="20" y="40" width="150" height="40" as="geometry" />
        </mxCell>
        <mxCell id="iGaDnqJwKuyefuH-cSoQ-27" style="edgeStyle=orthogonalEdgeStyle;rounded=0;orthogonalLoop=1;jettySize=auto;html=1;exitX=1;exitY=0.25;exitDx=0;exitDy=0;entryX=0;entryY=0.5;entryDx=0;entryDy=0;" parent="iGaDnqJwKuyefuH-cSoQ-2" source="UgUuZzhGdfhLJxjVj2-U-1" target="iGaDnqJwKuyefuH-cSoQ-15" edge="1">
          <mxGeometry relative="1" as="geometry" />
        </mxCell>
        <mxCell id="iGaDnqJwKuyefuH-cSoQ-31" value="2.&lt;br&gt;Application Config" style="edgeLabel;html=1;align=center;verticalAlign=middle;resizable=0;points=[];" parent="iGaDnqJwKuyefuH-cSoQ-27" vertex="1" connectable="0">
          <mxGeometry x="0.0566" y="4" relative="1" as="geometry">
            <mxPoint y="-1" as="offset" />
          </mxGeometry>
        </mxCell>
        <mxCell id="iGaDnqJwKuyefuH-cSoQ-35" style="edgeStyle=orthogonalEdgeStyle;rounded=0;orthogonalLoop=1;jettySize=auto;html=1;exitX=0.75;exitY=0;exitDx=0;exitDy=0;entryX=0.75;entryY=1;entryDx=0;entryDy=0;" parent="iGaDnqJwKuyefuH-cSoQ-2" source="UgUuZzhGdfhLJxjVj2-U-1" target="UgUuZzhGdfhLJxjVj2-U-2" edge="1">
          <mxGeometry relative="1" as="geometry" />
        </mxCell>
        <mxCell id="iGaDnqJwKuyefuH-cSoQ-36" value="4.&lt;br&gt;Ref to Engine" style="edgeLabel;html=1;align=center;verticalAlign=middle;resizable=0;points=[];" parent="iGaDnqJwKuyefuH-cSoQ-35" vertex="1" connectable="0">
          <mxGeometry x="0.0521" y="2" relative="1" as="geometry">
            <mxPoint x="3" y="2" as="offset" />
          </mxGeometry>
        </mxCell>
        <mxCell id="UgUuZzhGdfhLJxjVj2-U-1" value="Hephaestus instance" style="rounded=0;whiteSpace=wrap;html=1;" parent="iGaDnqJwKuyefuH-cSoQ-2" vertex="1">
          <mxGeometry x="20" y="190" width="160" height="90" as="geometry" />
        </mxCell>
        <mxCell id="iGaDnqJwKuyefuH-cSoQ-45" style="edgeStyle=orthogonalEdgeStyle;rounded=0;orthogonalLoop=1;jettySize=auto;html=1;exitX=0.25;exitY=0;exitDx=0;exitDy=0;entryX=1;entryY=0.75;entryDx=0;entryDy=0;" parent="iGaDnqJwKuyefuH-cSoQ-2" source="iGaDnqJwKuyefuH-cSoQ-15" target="UgUuZzhGdfhLJxjVj2-U-2" edge="1">
          <mxGeometry relative="1" as="geometry" />
        </mxCell>
        <mxCell id="iGaDnqJwKuyefuH-cSoQ-46" value="8.&lt;br&gt;Return" style="edgeLabel;html=1;align=center;verticalAlign=middle;resizable=0;points=[];" parent="iGaDnqJwKuyefuH-cSoQ-45" vertex="1" connectable="0">
          <mxGeometry x="-0.5685" relative="1" as="geometry">
            <mxPoint as="offset" />
          </mxGeometry>
        </mxCell>
        <mxCell id="iGaDnqJwKuyefuH-cSoQ-15" value="Engine" style="rounded=0;whiteSpace=wrap;html=1;" parent="iGaDnqJwKuyefuH-cSoQ-2" vertex="1">
          <mxGeometry x="340" y="130" width="100" height="100" as="geometry" />
        </mxCell>
        <mxCell id="iGaDnqJwKuyefuH-cSoQ-4" value="Engine" style="swimlane;whiteSpace=wrap;html=1;" parent="1" vertex="1">
          <mxGeometry x="467" y="110" width="360" height="290" as="geometry" />
        </mxCell>
        <mxCell id="UgUuZzhGdfhLJxjVj2-U-3" value="Engine" style="rounded=0;whiteSpace=wrap;html=1;" parent="iGaDnqJwKuyefuH-cSoQ-4" vertex="1">
          <mxGeometry x="23" y="60" width="160" height="170" as="geometry" />
        </mxCell>
        <mxCell id="iGaDnqJwKuyefuH-cSoQ-33" style="edgeStyle=orthogonalEdgeStyle;rounded=0;orthogonalLoop=1;jettySize=auto;html=1;exitX=0.75;exitY=0;exitDx=0;exitDy=0;entryX=0;entryY=0.25;entryDx=0;entryDy=0;" parent="1" source="iGaDnqJwKuyefuH-cSoQ-15" target="UgUuZzhGdfhLJxjVj2-U-3" edge="1">
          <mxGeometry relative="1" as="geometry" />
        </mxCell>
        <mxCell id="iGaDnqJwKuyefuH-cSoQ-34" value="3.&lt;br&gt;Application Config" style="edgeLabel;html=1;align=center;verticalAlign=middle;resizable=0;points=[];" parent="iGaDnqJwKuyefuH-cSoQ-33" vertex="1" connectable="0">
          <mxGeometry x="0.0119" y="-1" relative="1" as="geometry">
            <mxPoint x="28" as="offset" />
          </mxGeometry>
        </mxCell>
        <mxCell id="iGaDnqJwKuyefuH-cSoQ-41" style="edgeStyle=orthogonalEdgeStyle;rounded=0;orthogonalLoop=1;jettySize=auto;html=1;exitX=1;exitY=0.5;exitDx=0;exitDy=0;entryX=0;entryY=0.75;entryDx=0;entryDy=0;" parent="1" source="iGaDnqJwKuyefuH-cSoQ-15" target="UgUuZzhGdfhLJxjVj2-U-3" edge="1">
          <mxGeometry relative="1" as="geometry" />
        </mxCell>
        <mxCell id="iGaDnqJwKuyefuH-cSoQ-42" value="6.&lt;div&gt;Engine Call&lt;/div&gt;" style="edgeLabel;html=1;align=center;verticalAlign=middle;resizable=0;points=[];" parent="iGaDnqJwKuyefuH-cSoQ-41" vertex="1" connectable="0">
          <mxGeometry x="-0.2315" y="3" relative="1" as="geometry">
            <mxPoint x="18" as="offset" />
          </mxGeometry>
        </mxCell>
        <mxCell id="iGaDnqJwKuyefuH-cSoQ-43" style="edgeStyle=orthogonalEdgeStyle;rounded=0;orthogonalLoop=1;jettySize=auto;html=1;exitX=0;exitY=1;exitDx=0;exitDy=0;entryX=1;entryY=0.75;entryDx=0;entryDy=0;" parent="1" source="UgUuZzhGdfhLJxjVj2-U-3" target="iGaDnqJwKuyefuH-cSoQ-15" edge="1">
          <mxGeometry relative="1" as="geometry" />
        </mxCell>
        <mxCell id="iGaDnqJwKuyefuH-cSoQ-44" value="7.&lt;div&gt;Return&lt;/div&gt;" style="edgeLabel;html=1;align=center;verticalAlign=middle;resizable=0;points=[];" parent="iGaDnqJwKuyefuH-cSoQ-43" vertex="1" connectable="0">
          <mxGeometry x="0.107" y="3" relative="1" as="geometry">
            <mxPoint as="offset" />
          </mxGeometry>
        </mxCell>
      </root>
    </mxGraphModel>
  </diagram>
  <diagram id="Oa7g_Brs1DSem0jeupDc" name="shader-arch">
    <mxGraphModel dx="1426" dy="761" grid="1" gridSize="10" guides="1" tooltips="1" connect="1" arrows="1" fold="1" page="1" pageScale="1" pageWidth="827" pageHeight="1169" math="0" shadow="0">
      <root>
        <mxCell id="0" />
        <mxCell id="1" parent="0" />
      </root>
    </mxGraphModel>
  </diagram>
  <diagram id="DpwtMCsMX44rAe4KwRdS" name="vulkan-swapchain-sync">
    <mxGraphModel dx="3420" dy="1384" grid="1" gridSize="10" guides="1" tooltips="1" connect="1" arrows="1" fold="1" page="1" pageScale="1" pageWidth="827" pageHeight="1169" math="0" shadow="0">
      <root>
        <mxCell id="0" />
        <mxCell id="1" parent="0" />
        <mxCell id="CWO7D-FzDelhE3tpwB9m-2" value="Swapchain" style="swimlane;whiteSpace=wrap;html=1;" vertex="1" parent="1">
          <mxGeometry x="-180" y="100" width="365" height="380" as="geometry" />
        </mxCell>
        <mxCell id="CWO7D-FzDelhE3tpwB9m-4" value="imageAvaliableSemapores[MAX_FRAMES_IN_FLIGHT]" style="text;html=1;align=center;verticalAlign=middle;resizable=0;points=[];autosize=1;strokeColor=none;fillColor=none;" vertex="1" parent="CWO7D-FzDelhE3tpwB9m-2">
          <mxGeometry x="20" y="150" width="320" height="30" as="geometry" />
        </mxCell>
        <mxCell id="CWO7D-FzDelhE3tpwB9m-5" value="renderFinishedSemapores[MAX_FRAMES_IN_FLIGHT]" style="text;html=1;align=center;verticalAlign=middle;resizable=0;points=[];autosize=1;strokeColor=none;fillColor=none;" vertex="1" parent="CWO7D-FzDelhE3tpwB9m-2">
          <mxGeometry x="20" y="190" width="320" height="30" as="geometry" />
        </mxCell>
        <mxCell id="CWO7D-FzDelhE3tpwB9m-6" value="inFlightFences[MAX_FRAMES_IN_FLIGHT]" style="text;html=1;align=center;verticalAlign=middle;resizable=0;points=[];autosize=1;strokeColor=none;fillColor=none;" vertex="1" parent="CWO7D-FzDelhE3tpwB9m-2">
          <mxGeometry x="20" y="230" width="260" height="30" as="geometry" />
        </mxCell>
        <mxCell id="CWO7D-FzDelhE3tpwB9m-7" value="imagesInFlight[imageCount]" style="text;html=1;align=center;verticalAlign=middle;resizable=0;points=[];autosize=1;strokeColor=none;fillColor=none;" vertex="1" parent="CWO7D-FzDelhE3tpwB9m-2">
          <mxGeometry x="65" y="270" width="170" height="30" as="geometry" />
        </mxCell>
        <mxCell id="CWO7D-FzDelhE3tpwB9m-8" value="&amp;nbsp;" style="text;html=1;align=center;verticalAlign=middle;resizable=0;points=[];autosize=1;strokeColor=none;fillColor=none;" vertex="1" parent="CWO7D-FzDelhE3tpwB9m-2">
          <mxGeometry x="150" y="30" width="30" height="30" as="geometry" />
        </mxCell>
        <mxCell id="CWO7D-FzDelhE3tpwB9m-9" value="images[imageCount]" style="text;html=1;align=center;verticalAlign=middle;resizable=0;points=[];autosize=1;strokeColor=none;fillColor=none;" vertex="1" parent="CWO7D-FzDelhE3tpwB9m-2">
          <mxGeometry x="100" y="90" width="130" height="30" as="geometry" />
        </mxCell>
        <mxCell id="CWO7D-FzDelhE3tpwB9m-11" value="framebuffers[imageCount]" style="text;html=1;align=center;verticalAlign=middle;resizable=0;points=[];autosize=1;strokeColor=none;fillColor=none;" vertex="1" parent="CWO7D-FzDelhE3tpwB9m-2">
          <mxGeometry x="100" y="120" width="160" height="30" as="geometry" />
        </mxCell>
        <mxCell id="CWO7D-FzDelhE3tpwB9m-13" value="imageCount = ??" style="text;html=1;align=center;verticalAlign=middle;resizable=0;points=[];autosize=1;strokeColor=none;fillColor=none;" vertex="1" parent="CWO7D-FzDelhE3tpwB9m-2">
          <mxGeometry x="100" y="60" width="120" height="30" as="geometry" />
        </mxCell>
        <mxCell id="CWO7D-FzDelhE3tpwB9m-14" value="int currentFrame" style="text;html=1;align=center;verticalAlign=middle;resizable=0;points=[];autosize=1;strokeColor=none;fillColor=none;" vertex="1" parent="CWO7D-FzDelhE3tpwB9m-2">
          <mxGeometry x="100" y="308" width="110" height="30" as="geometry" />
        </mxCell>
        <mxCell id="CWO7D-FzDelhE3tpwB9m-3" value="Renderer" style="swimlane;whiteSpace=wrap;html=1;" vertex="1" parent="1">
          <mxGeometry x="370" y="180" width="200" height="200" as="geometry" />
        </mxCell>
        <mxCell id="CWO7D-FzDelhE3tpwB9m-15" value="Swapchain swapchain&lt;div&gt;currentImageIndex&lt;br&gt;currentFrameIndex = 0&lt;/div&gt;&lt;div&gt;isFrameStarted = false&lt;/div&gt;" style="text;html=1;align=center;verticalAlign=middle;resizable=0;points=[];autosize=1;strokeColor=none;fillColor=none;" vertex="1" parent="CWO7D-FzDelhE3tpwB9m-3">
          <mxGeometry x="25" y="30" width="150" height="70" as="geometry" />
        </mxCell>
      </root>
    </mxGraphModel>
  </diagram>
</mxfile>
